<svg id="Layer_1" data-name="Layer 1" xmlns="http://www.w3.org/2000/svg" viewBox="0 0 3349.39 1037.35"><defs><style>.cls-1{fill:#fff;}.cls-2{fill:#008751;}</style></defs><title>QNigeria_logo_white</title><path class="cls-1" d="M881.15,798.23a13.46,13.46,0,0,1-9.95-4,89.3,89.3,0,0,1-19.92-20.42q-7.95-11.46-8-31.36,0-15.93,6.48-39.33T871.2,645.9q18.9-42.79,31.36-69.19a475.59,475.59,0,0,1,25.38-47.29q12.94-20.92,33.85-47.3t56.76-68.19A184.24,184.24,0,0,1,1035,397.49q11.44-10.42,22.91-20.9a189.67,189.67,0,0,0,16.41-16.43c3.33-3.31,5-5.62,5-7v-3q0-3,6-10,33.82-34.85,63.71-68.69t58.75-56.26q28.88-22.38,59.73-22.39a56.57,56.57,0,0,1,7.47.49q3.46.51,7.47,1.5a153.37,153.37,0,0,1,17.91,2.49q7,1.5,7,8.47,0,5-8,20.89-18.91,31.89-29.37,83.14a964,964,0,0,0-15.44,108q-5,56.74-6,107t-1,81.15V618c0,5.32.32,8.63,1,9.94a44.61,44.61,0,0,0,5,7h1q1,4,7.47,13.44t5.48,7.47q28.88-52.77,55.27-96.08t62.21-94.57a1152.31,1152.31,0,0,1,79.65-101.07,802,802,0,0,0,54.25-69.69q26.39-37.83,53.28-75.17a603.7,603.7,0,0,1,55.74-67.19,200.42,200.42,0,0,0,14.94-17.44q9-11.41,17.43-21.89c5.62-7,9.45-12.27,11.44-15.94s1-3.47-3,.5q8-10.93,10-13.93t14.94-14.94q10.93-9,26.88-9a44.34,44.34,0,0,1,22.39,6q10.45,6,10.46,16.94,0,9-7,16.91a51.46,51.46,0,0,1-12.93,12.45,35.49,35.49,0,0,0-12,13.45q-5,7-19.42,18.91t-19.4,16.93q-12.94,15.93-31.86,36.84t-37.83,40.32q-18.92,19.39-30.86,31.86t-12,11.45l-35.84,50.76Q1479.5,396,1446.64,438.81t-49.76,71.68q-17,28.9-24.41,48.29t-11.93,34.85A222.05,222.05,0,0,1,1348.09,626q-2,4-12,21.42t-20.4,34.34c-7,11.3-12.11,17.91-15.44,19.91a14.53,14.53,0,0,1-9,3,22.89,22.89,0,0,1-6.46-1,32.33,32.33,0,0,0-8.46-1c-4,0-7,.68-9,2q-22.92,8-35.84,8c-6.63,0-12.29-1.65-16.93-5q-7-7.95-12.43-24.38a195.07,195.07,0,0,1-8-32.85c-1.68-11-2.49-18.75-2.49-23.41q4-46.77,5.47-64.71t1.5-27.87q0-10.93-4-39.83c-.67-5.3-.67-15.94,0-31.85s1.82-33.69,3.49-53.28,3.49-37.33,5.48-53.25,4-26.22,6-30.88c.63-.64,1-2,1-4a19.42,19.42,0,0,0-2.49-9.47c-1.67-3-3.17-4.82-4.48-5.48q-8,4-31.36,25.39t-55.76,55.26q-32.37,33.85-68.2,76.66A71.25,71.25,0,0,1,1033,480.13a95.17,95.17,0,0,0-16.41,16.43q-24.9,30.87-39.83,48.3t-24.9,28.37a193.89,193.89,0,0,0-17.91,22.89A363.81,363.81,0,0,0,915.49,628q-10.43,19.93-27.37,55.77a24.79,24.79,0,0,0-3,11,45,45,0,0,0,3,15.92,39.47,39.47,0,0,1,2,17.93c-.66,6,0,14.58,2,25.88s3,19.56,3,24.88v2q0,9.94-4.48,13.44A15.26,15.26,0,0,1,881.15,798.23Z" transform="translate(-25.98 -51.59)"/><path class="cls-1" d="M1507,721.57q-4,0-7-6a70.41,70.41,0,0,0-5-13.94q-3-6-3-17.91,0-13.93,6-40.83t22.89-80.64q12.94-40.83,23.89-65.71t22.91-47.79v-1a24.79,24.79,0,0,1,9-7q5.94-3,8-6h-1c1.34-1.31,1.65-3.46,1-6.45a39.45,39.45,0,0,1-1-8.47,25.08,25.08,0,0,1,7.47-18.43q7.47-7.44,15.44-14.42,7.95-7.95,24.88-17.93t39.83-13.93a19.17,19.17,0,0,1,6-1h6q16.92,0,25.88,6.95c6,4.66,10.28,9.64,13,14.94a36.11,36.11,0,0,1,4,5,12.47,12.47,0,0,1,2,7c0,2.65-1.18,6.13-3.49,10.44s-7.15,9.8-14.44,16.43a70.91,70.91,0,0,1-14.45,12.45,122.76,122.76,0,0,0-17.41,14.43,203,203,0,0,0-18.92,21.91q-8.94,12-16.92,22.89A162.64,162.64,0,0,1,1627.44,505q-8,8.46-15.92,17.41c-2.67,2.67-4.66,7.47-6,14.45a32.62,32.62,0,0,1-9,17.41,54.85,54.85,0,0,1-15.44,14,36.1,36.1,0,0,0-13.43,13.94v-1q-5,8.92-11,20.89t-12,22.89q-9.94,19.93-12.93,29.39t-3,14.42c0,4,.82,6.66,2.49,8s1.82,4.66.5,10q-4,9-10.46,21.9T1507,721.57Zm217-429.11c-6,0-9.8-2.13-11.45-6.48a62.63,62.63,0,0,1-3.49-12.43q-1-5-2-10.95a73.12,73.12,0,0,1-1-12,40.1,40.1,0,0,1,2.49-14.42c1.66-4.33,4.81-7.79,9.47-10.46q22.89-12,38.83-16.92t25.88-5c10,0,16.57,3,19.92,8.95s5,13.63,5,22.91v7.47a44.39,44.39,0,0,1-1,8.45q-3,13-19.4,17.93a224.62,224.62,0,0,0-27.38,10q-7,4-16.43,8.45c-6.32,3-12.11,4.48-17.41,4.48Z" transform="translate(-25.98 -51.59)"/><path class="cls-1" d="M1611,1088.94q-32.84,0-52.25-22.39t-27.89-52.78q-8.43-30.39-8.45-54.25,5-22.92,7.45-36.34t18.43-33.37c4.64-4.64,8.31-6.95,11-6.95q5,0,4.48,9.94t-.5,21.92v38.83a343,343,0,0,0,3.47,48.27q3.52,24.38,13.94,40.82t30.36,16.43q37.88,0,67.22-19.42t53.26-49.77q23.89-30.39,44.8-63.23a143.3,143.3,0,0,1,17.91-21.89,123.7,123.7,0,0,0,16.94-20.9A110.31,110.31,0,0,0,1823.58,859,92.44,92.44,0,0,1,1835,836.06a417,417,0,0,0,50.78-94.59,872.52,872.52,0,0,1,46.8-101.54,287.78,287.78,0,0,1,14.92-36.84q11-25.87,14.45-36.84c2.31-7.29,3.48-12.45,3.48-15.44v-8.44c-6.65,4.64-11.79,7.81-15.44,9.44s-7.81,3.82-12.43,6.47-12,9-21.91,18.93l-1,1c-.66-.66-2.83,1-6.47,5s-6.82,6.63-9.45,7.95q-6,4-18.92,16.43T1861.91,624q-33.86,24.91-56.76,42.81t-54.75,34.85l-6,7-2,1q-2,0-9.46,1c-5,.68-6.14,1-3.49,1h1a95.16,95.16,0,0,1-13.45,6.47,72.51,72.51,0,0,0-11.43,5.48c-8.65,3.31-16.6,5-23.91,5a31.1,31.1,0,0,1-20.4-7q-8.46-7-8.47-21.92a66.55,66.55,0,0,1,.5-7.95,72.23,72.23,0,0,1,1.49-8q9-32.88,29.37-77.66t55.26-95.59q34.85-50.78,86.63-99.55,29.85-28.87,62.21-46.8t66.21-21.89c1.33,0,3.64-.66,7-2a24.76,24.76,0,0,1,9-2,41.28,41.28,0,0,1,15.42,3,41.21,41.21,0,0,0,15.43,3,401.94,401.94,0,0,1,35.85,19.9,188.89,188.89,0,0,1,24.38,18.43Q2072,392,2072,401q0,10-7.47,17.93T2055,430.86c-2,2.65-5.32,4-10,4q-14.94,0-16.93-14.92,0-9.94-3.49-16.93a46.4,46.4,0,0,0-8.44-11.93c-1.36-1.34-6.34-2.65-15-4s-14.6-2-17.93-2q-18.91,0-44.28,14.92T1884.8,440.8a136.79,136.79,0,0,1-24.39,16.94A83,83,0,0,0,1840,472.66q-4,4-7.47,12.45a40.84,40.84,0,0,1-8.45,13.45q-35.85,37.83-54.76,67.2T1742.93,617q-7.47,21.9-12.45,39.82c0,5.32,1.65,7.95,5,7.95h10q16.92-5,39.83-20.4t46.28-33.85q23.4-18.4,40.32-31.36a29,29,0,0,1,10.46-7,23.09,23.09,0,0,0,8.47-5,66.25,66.25,0,0,0,8.46-8,48.7,48.7,0,0,1,7.45-7q29.89-22.89,44.31-33.85T1971.42,503c4-3,7.29-5.32,9.94-7a100.75,100.75,0,0,0,11-8.47q12-9,20.92-9a20.81,20.81,0,0,1,17.41,8.47c4.3,5.66,6.79,11.12,7.47,16.44a62.23,62.23,0,0,1,2,14.92q0,12-4,19.92c-3.33,4-5,7.63-5,10.94a8.87,8.87,0,0,0,1,4,11.18,11.18,0,0,1,1,5,27.46,27.46,0,0,1-2,8.47q-2,5.47-9,16.44v-1q-5,10-7,14.43a116.62,116.62,0,0,1-7,12.45,222.12,222.12,0,0,1-21.92,47.79q-14,22.89-30.86,51.76-12.93,33.82-27.87,67.2A407.91,407.91,0,0,1,1889.78,842q-22.92,31.86-51.28,74.17a812.92,812.92,0,0,1-62.72,81.64q-34.33,39.3-75.66,65.21T1611,1088.94Z" transform="translate(-25.98 -51.59)"/><path class="cls-1" d="M2169.51,742.47c-2,0-6.32-1.16-12.93-3.49s-13.63-4.46-20.92-6.45-12.61-3-15.94-3h-1q-18.95,0-28.39-15.44c-6.32-10.28-10.44-19.75-12.43-28.37a91.7,91.7,0,0,1-1.5-10.46c-.36-3.65-.5-7.47-.5-11.46q0-32.84,15.92-74.67t43.31-86.6a568.59,568.59,0,0,1,62.22-83.63q35.86-40.83,72.68-63.72t66.72-25.89q15.9,0,32.85,9t23.89,9h1q20.92,0,27.88,16.91a88.5,88.5,0,0,1,7,33.85,61.26,61.26,0,0,1-4,20.92c-2.65,7.31-4.82,13.29-6.45,17.91s-1.85,6.31-.5,5l1-1q-11,19.93-24.41,40.32T2351.7,534.4q-11.92,12.93-32.35,25.38T2280,582.19q-18.92,10-26.88,13.93c-5.31,2.67-12.29,4-20.91,4a149.36,149.36,0,0,1-28.37-3,142.54,142.54,0,0,0-26.38-3,56.33,56.33,0,0,0-11,1,9.14,9.14,0,0,0-7,6q-15.93,25.9-15.92,51.78,0,15.92,7.47,26.37t25.38,10.46a94.13,94.13,0,0,0,12.95-1,55.19,55.19,0,0,0,13.93-4q16.91-3,23.91-3a67.24,67.24,0,0,0,15.42-2q8.45-2,28.36-10,21.91-9,33.37-12.93t17.92-7c4.3-2,8.78-4.33,13.44-7s11.94-6.63,21.9-11.95q10.93-6,12.45-6c1,0,2.81-.81,5.48-2.47s9.6-6.13,20.9-13.44q17.92-12,27.87-12c4.64,0,7,1.68,7,5,0,2.67-2.15,6.64-6.47,12s-11.8,11.61-22.4,18.9q-16.93,12-38.33,27.88t-39.32,24.9a22.69,22.69,0,0,0-10.46,4.48c-3,2.33-7.14,4.14-12.44,5.48l-55.76,23.89,1-1q3-3-6.48,0t-23.88,9q-14.45,6-27.88,10.43T2169.51,742.47Zm38.83-171.24a64.83,64.83,0,0,0,8-.49,70.6,70.6,0,0,0,8-1.5,64.45,64.45,0,0,1,12.93-9,135.55,135.55,0,0,0,15.93-10q10-6.95,27.88-24.89,14.94-14.94,25.9-21.39a73,73,0,0,0,17.91-14.45q20.91-28.86,22.39-43.81t1.49-27.87Q2336.79,402,2326.82,402c-4,0-10,1.68-17.93,5a249.26,249.26,0,0,0-27.38,12.95q-10.46,6-30.36,25.88-22.92,23.91-41.81,46.3t-29.87,45.31a51.12,51.12,0,0,1-2.49,7.47,15,15,0,0,0-1.49,5.46c0,7.31,3.3,12.63,10,15.93A50.27,50.27,0,0,0,2208.34,571.23Z" transform="translate(-25.98 -51.59)"/><path class="cls-1" d="M2451.77,716.59q-9-2-9-20.9,0-32.88,18.9-70.71a124.61,124.61,0,0,0,10.46-13.92,28.79,28.79,0,0,0,4.48-15.94c0-4,2-10.1,6-18.41s8.47-17.25,13.43-26.89,9.46-18.07,13.45-25.38,6-11.6,6-13q2-5,7-17.91,9.91-14.94,24.38-36.84T2581.19,406h-1q13.93-22.89,25.4-39.33a195.55,195.55,0,0,1,21.4-26.38q31.86-31.85,72.68-31.85,24.85,0,24.88,21.89,0,18.94-22.89,38.83-9,8-18.43,15.44A197,197,0,0,0,2665.82,400q-8,9-21.92,26.4t-32.85,43.31q-2,3-10.44,14.42T2583.68,509c-5.64,8.94-9.62,16.59-12,22.89s-1.15,9.12,3.49,8.46q13.92-19.89,68.69-58.75,22.89-15.9,37.84-31.85a173.71,173.71,0,0,1,29.88-25.88,62,62,0,0,0,10.94-6,86.16,86.16,0,0,0,13-11h1q26.89-13.92,57.74-31.35T2859,336.27c2-1.32,4.62-1.32,8,0q44.79-15.9,61.71-15.92t16.92,14.92c0,2-.84,7-2.47,14.94a75.1,75.1,0,0,1-9,22.9q-6.48,11-18.42,10.95H2871.9q-32.85,12.94-70.19,27.38t-77.16,43.31h-1q-146.34,96.59-219,204.1a61.75,61.75,0,0,1-4,11.94q-3,7-7,16.93Q2478.66,713.6,2451.77,716.59Z" transform="translate(-25.98 -51.59)"/><path class="cls-1" d="M2823.4,721.57q-4,0-7-6a69.79,69.79,0,0,0-5-13.94q-3-6-3-17.91,0-13.93,6-40.83t22.89-80.64q12.95-40.83,23.89-65.71t22.91-47.79v-1a24.83,24.83,0,0,1,9-7q6-3,7.95-6h-1c1.33-1.31,1.65-3.46,1-6.45a39.41,39.41,0,0,1-1-8.47,25.08,25.08,0,0,1,7.47-18.43Q2915,394,2923,387.05q8-7.95,24.88-17.93t39.83-13.93a19.15,19.15,0,0,1,6-1h6q16.91,0,25.88,6.95t12.95,14.94a36.1,36.1,0,0,1,4,5,12.39,12.39,0,0,1,2,7c0,2.65-1.17,6.13-3.48,10.44s-7.15,9.8-14.45,16.43q-5,6-14.44,12.45a122.2,122.2,0,0,0-17.41,14.43,203.09,203.09,0,0,0-18.93,21.91q-8.94,12-16.91,22.89A163.73,163.73,0,0,1,2943.88,505q-8,8.46-15.92,17.41c-2.67,2.67-4.66,7.47-6,14.45a32.54,32.54,0,0,1-9,17.41,55.13,55.13,0,0,1-15.44,14,36.1,36.1,0,0,0-13.43,13.94v-1q-5,8.92-11,20.89t-12,22.89q-10,19.93-12.93,29.39t-3,14.42c0,4,.82,6.66,2.49,8s1.81,4.66.5,10q-4,9-10.46,21.9T2823.4,721.57Zm217.06-429.11c-6,0-9.8-2.13-11.46-6.48a62.57,62.57,0,0,1-3.48-12.43q-1-5-2-10.95a73.12,73.12,0,0,1-1-12,40.1,40.1,0,0,1,2.49-14.42c1.65-4.33,4.8-7.79,9.46-10.46q22.89-12,38.83-16.92c10.6-3.32,19.25-5,25.88-5,10,0,16.58,3,19.92,8.95s5,13.63,5,22.91v7.47a44.28,44.28,0,0,1-1,8.45q-3,13-19.41,17.93a224.4,224.4,0,0,0-27.37,10q-7,4-16.44,8.45t-17.41,4.48Z" transform="translate(-25.98 -51.59)"/><path class="cls-1" d="M2995.06,728.54q-12,0-19.93-7c-5.3-4.66-8-12-8-21.92a66.55,66.55,0,0,1,.5-7.95,80.07,80.07,0,0,1,1.5-8q8-32.88,26.89-77.66t50.27-95.59q31.38-50.78,78.15-99.55,34.84-35.83,74.67-51.28a232.32,232.32,0,0,1,84.63-15.42h1q33.83,0,44.8,17.41t11,35.36q0,20.89-6,32.85l-1,1a13.55,13.55,0,0,1-10,4,14.08,14.08,0,0,1-9.47-4c-3-2.65-4.48-6.32-4.48-11q0-9.94-3.48-16.93a46.43,46.43,0,0,0-8.45-11.93c-.68-1.34-2.33-2.16-5-2.49a71.6,71.6,0,0,0-9-.5h-1a13.2,13.2,0,0,1-6-1.5,13.32,13.32,0,0,0-6-1.49q-37.83,0-93.57,52.75-56.76,55.8-84.63,96.59t-38.33,70.18a427.94,427.94,0,0,0-15.42,52.28c-.68,5.32,1,7.95,5,7.95q11,0,27.39-9.94A362.61,362.61,0,0,0,3105.57,631q17.89-13.92,34.84-28.37t26.88-23.39a32.45,32.45,0,0,1,9.46-7,24.51,24.51,0,0,0,7.47-5,32.39,32.39,0,0,0,7.45-8,25.76,25.76,0,0,1,6.48-7Q3234,521.47,3255.9,503t34.35-29.39q12.42-10.93,21.39-18.9,12.95-12.94,28.89-12.95,22.89,0,28.87,24.9,3.95,13.95-7,19.41c-7.32,3.66-12.61,7.8-15.94,12.45q-8,9.94-16.92,29.36t-23.9,46.3a225.45,225.45,0,0,0-15.42,37.34q-6.49,20.4-4.49,30.36l16.94-11a208.16,208.16,0,0,1,27.87-10.44q14.94-4.49,24.88-11.45c4.65-2.65,8.63-4,12-4,5.3,0,8,2.33,8,7q0,8-12,15.91-28.89,20.92-45.8,29.39t-35.84,27.37c-2.65,2.65-8.13,8.81-16.42,18.41s-14.12,15.44-17.43,17.43a25.41,25.41,0,0,1-8.47,2.49,79.79,79.79,0,0,1-8.46.5c-9.31,0-14.92-1-16.92-3a17.29,17.29,0,0,0-5.47-3.48c-2.34-1-4.15-3.15-5.48-6.48a57.88,57.88,0,0,1-2-13.92q0-17.94,9.47-42.32A502.8,502.8,0,0,1,3236,600.1q12.93-24.86,18.92-38.83t9-23.39a177,177,0,0,1,7-18.42q-14,13-28.86,26.89t-34.85,30.86c-2,1.34-4.64,3.15-8,5.48a62.47,62.47,0,0,1-7,4.46l-26.88,24.91q-27.87,21.9-49.76,40.82t-44.81,35.84A530.06,530.06,0,0,1,3016,723.56Q3004,728.53,2995.06,728.54Z" transform="translate(-25.98 -51.59)"/><path class="cls-2" d="M697.41,701.22a38.09,38.09,0,0,1-17.93,4.57A38.54,38.54,0,0,1,651.69,694L644,686.36h0a330,330,0,0,1-225.6,89C235.68,775.33,87,626.69,87,444S235.68,112.65,418.38,112.65,749.73,261.29,749.73,444a329.43,329.43,0,0,1-60.27,190.19l43.88,43.87A390.63,390.63,0,0,0,810.78,444c0-216.72-175.68-392.4-392.4-392.4S26,227.27,26,444s175.69,392.4,392.4,392.4c129,0,243.41-62.24,314.94-158.31A274.71,274.71,0,0,1,697.41,701.22Z" transform="translate(-25.98 -51.59)"/><path class="cls-2" d="M334.24,392.6A38.46,38.46,0,0,0,309,402l-2,1.79-.24.24-97.28,97.29-26.18,26.23a38.49,38.49,0,0,0-11.8,27.76,38,38,0,0,0,4.56,17.92c46.31,86.46,137.53,145.43,242.28,145.43A273.64,273.64,0,0,0,604,646.3L362,404.39A38.52,38.52,0,0,0,334.24,392.6Z" transform="translate(-25.98 -51.59)"/><path class="cls-2" d="M693.06,444c0-151.46-123.22-274.68-274.68-274.68S143.71,292.53,143.71,444c0,8.23.4,16.36,1.12,24.41l162-162,.24-.24,2-1.79a38.55,38.55,0,0,1,53,2.38L648.68,593.41A272.91,272.91,0,0,0,693.06,444Z" transform="translate(-25.98 -51.59)"/></svg>